<?xml version="1.0" standalone="no"?><!DOCTYPE svg PUBLIC "-//W3C//DTD SVG 1.1//EN" "http://www.w3.org/Graphics/SVG/1.1/DTD/svg11.dtd"><svg t="1502940773321" class="icon" style="" viewBox="0 0 1024 1024" version="1.1" xmlns="http://www.w3.org/2000/svg" p-id="2044" xmlns:xlink="http://www.w3.org/1999/xlink" width="146" height="146"><defs><style type="text/css"></style></defs><path d="M928.108023 460.129632c1.209548-3.237741 0.851391-6.739495 0.851391-10.398838 0-2.128477 0.797156-4.198625 0.370437-6.205329 0.426719-7.892761 0.125867-23.453155-33.93181-23.648606L667.524123 419.876859c15.901155-34.545794 20.067035-68.566632 11.159154-93.715405L856.856235 113.796766c10.610662-12.622482 8.980535-31.457456-3.672646-42.041512-12.653181-10.615779-31.43085-8.952906-42.045605 3.672646L632.909767 287.767006c-39.830147-6.652514-94.457302 19.677155-136.189775 69.453838-16.884552 20.122293-29.618575 41.642422-37.928844 62.656015l-331.213517 0c-28.652574-1.168616-33.339316 15.755846-32.909527 23.648606-0.425695 2.00261 0.37146 4.075829 0.37146 6.205329 0 3.654226-0.36225 7.160073 0.846274 10.398838 13.613042 148.744719 100.825336 297.78722 223.782739 377.726877l-76.374458 0c-16.444531 0-29.853935 13.385868-29.853935 29.857005 0 16.47216 13.409404 29.853935 29.853935 29.853935l537.40767 0c16.444531 0 29.853935-13.381775 29.853935-29.853935 0-16.471137-13.413498-29.857005-29.853935-29.857005L704.325283 837.856509C827.287803 757.921969 914.49805 608.874351 928.108023 460.129632L928.108023 460.129632zM542.43722 395.620409c31.838126-37.906332 67.818595-60.034305 80.468706-49.418526 11.036357 9.266038 0.502443 40.59251-23.677259 73.674976l-74.862012 0C529.572214 411.924747 535.626094 403.741367 542.43722 395.620409L542.43722 395.620409zM511.995907 837.856509c-178.088024 0-325.84423-178.349991-353.584014-358.266663L865.588107 479.589846C837.84423 659.506519 690.091094 837.856509 511.995907 837.856509L511.995907 837.856509zM511.995907 837.856509" p-id="2045"></path></svg>